<svg id="MONITOR" xmlns="http://www.w3.org/2000/svg" viewBox="0 0 1600 1400"><defs><style>.cls-1{fill:#fff;}.cls-2{fill:#262424;}.cls-3{fill:#87bfc1;}.cls-4{fill:#dd9144;}</style></defs><title>Copy Writing</title><rect class="cls-1" x="452.87" y="172.82" width="988.03" height="717.33" rx="20.42" ry="20.42"/><path class="cls-2" d="M1420.47,892.66H473.29a23,23,0,0,1-22.92-22.92V193.25a23,23,0,0,1,22.92-22.92h947.18a23,23,0,0,1,22.92,22.92V869.74A23,23,0,0,1,1420.47,892.66ZM473.29,175.32a17.94,17.94,0,0,0-17.92,17.92V869.74a17.94,17.94,0,0,0,17.92,17.92h947.18a17.94,17.94,0,0,0,17.92-17.92V193.25a17.94,17.94,0,0,0-17.92-17.92H473.29Z"/><rect class="cls-1" x="477.22" y="197.18" width="939.32" height="668.63"/><path class="cls-2" d="M1416.55,868.31H477.22a2.5,2.5,0,0,1-2.5-2.5V197.18a2.5,2.5,0,0,1,2.5-2.5h939.32a2.5,2.5,0,0,1,2.5,2.5V865.81A2.5,2.5,0,0,1,1416.55,868.31Zm-936.82-5H1414V199.68H479.72V863.31Z"/><rect class="cls-1" x="477.22" y="197.18" width="939.32" height="76.23"/><path class="cls-2" d="M1416.54,275.91H477.22a2.5,2.5,0,0,1-2.5-2.5V197.18a2.5,2.5,0,0,1,2.5-2.5h939.32a2.5,2.5,0,0,1,2.5,2.5v76.23A2.5,2.5,0,0,1,1416.54,275.91Zm-936.82-5H1414V199.68H479.72v71.23Z"/><path class="cls-3" d="M647.12,217.17a18.12,18.12,0,0,0,0,36.24H1246a18.12,18.12,0,1,0,0-36.24H647.12Z"/><path class="cls-4" d="M522.15,248.83l17.77-28a4.61,4.61,0,0,1,7.79,0l17.77,28a4.61,4.61,0,0,1-3.9,7.09H526.05A4.61,4.61,0,0,1,522.15,248.83Z"/><rect class="cls-4" x="1337.83" y="216.32" width="49.32" height="13.28" rx="6" ry="6"/><rect class="cls-4" x="1337.83" y="240.99" width="49.32" height="13.28" rx="6" ry="6"/><rect class="cls-3" x="653.87" y="301.75" width="586.02" height="903.78" rx="13.09" ry="13.09"/><rect class="cls-4" x="901.09" y="400.11" width="280.45" height="30.09" rx="13.59" ry="13.59"/><rect class="cls-4" x="901.09" y="479.62" width="280.45" height="30.09" rx="13.59" ry="13.59"/><rect class="cls-1" x="722.89" y="928.02" width="219.18" height="30.09" rx="13.59" ry="13.59"/><rect class="cls-1" x="722.89" y="1007.54" width="219.18" height="30.09" rx="13.59" ry="13.59"/><rect class="cls-1" x="722.89" y="1087.05" width="219.18" height="30.09" rx="13.59" ry="13.59"/><path class="cls-1" d="M831.86,526.91H778.41l-13.14,31.55H733.94l72.73-167.58h1.75l72.73,167.58h-36.8Zm-10.52-26.73L805.79,461l-16.21,39.21h31.76Z"/><rect class="cls-1" x="722.89" y="590.49" width="458.64" height="299.01" rx="10.66" ry="10.66"/><rect class="cls-4" x="976.58" y="926.84" width="204.95" height="207.03" rx="12.61" ry="12.61"/><path class="cls-1" d="M989.44,941.16h179.23a0.61,0.61,0,0,1,.61.61v177.16a0.62,0.62,0,0,1-.62.62H989.44a0.61,0.61,0,0,1-.61-0.61V941.78A0.62,0.62,0,0,1,989.44,941.16Z" transform="translate(2109.41 -48.7) rotate(90)"/><path class="cls-4" d="M990.54,1120.59h177a0.68,0.68,0,0,0,.68-0.68V1088l-39.86-39.86a14.63,14.63,0,0,0-20.7,0L1088,1067.86l-49.47-49.47a14.63,14.63,0,0,0-20.7,0l-28,28v73.54A0.68,0.68,0,0,0,990.54,1120.59Z"/><circle class="cls-4" cx="1093.56" cy="1003.27" r="20.44"/><polygon class="cls-1" points="233.82 1070.71 215.71 1145.86 241.53 1151.25 268.51 1083.43 233.82 1070.71"/><path class="cls-2" d="M241.53,1153.75a2.48,2.48,0,0,1-.51-0.05l-25.82-5.4a2.5,2.5,0,0,1-1.92-3l18.11-75.15a2.5,2.5,0,0,1,3.29-1.76l34.68,12.72a2.5,2.5,0,0,1,1.46,3.27l-27,67.82A2.5,2.5,0,0,1,241.53,1153.75Zm-22.79-9.82,21.24,4.44,25.25-63.48L235.6,1074Z"/><path class="cls-3" d="M322.84,1216.38v10.79H190.27s0-5.09.43-13.11c1-19.17,4.56-55.13,16.53-78.23h48.94s13,38.3,54.75,60.68a22.6,22.6,0,0,1,11.8,17.55A23,23,0,0,1,322.84,1216.38Z"/><path class="cls-1" d="M322.84,1216.38v10.79H190.27s0-5.09.43-13.11h132A23,23,0,0,1,322.84,1216.38Z"/><path class="cls-2" d="M322.84,1229.68H190.27a2.5,2.5,0,0,1-2.5-2.5c0-.21,0-5.25.44-13.24a2.5,2.5,0,0,1,2.5-2.37h132a2.5,2.5,0,0,1,2.49,2.25,25.56,25.56,0,0,1,.13,2.57v10.79A2.5,2.5,0,0,1,322.84,1229.68Zm-130-5H320.34v-8.11H193.08C192.92,1220,192.84,1222.83,192.81,1224.68Z"/><path class="cls-3" d="M343.82,949.87c-0.42,3.21-4.73,14.67-10.85,29.83-17.16,42.58-48.62,114.36-48.62,114.36l-62.73-22.8,39.92-142.57S224.88,814.63,220.8,782.86,231.4,701.4,231.4,701.4c26.07-75,83.91-62.73,92.05-22,6.6,33,16.93,181.75,19.76,243.75C343.88,937.76,344.13,947.55,343.82,949.87Z"/><path class="cls-2" d="M297.91,940a2.54,2.54,0,0,1-.59-0.07L267.5,932.7a2.5,2.5,0,1,1,1.17-4.86L298.49,935A2.5,2.5,0,0,1,297.91,940Z"/><path class="cls-2" d="M269,1073.78a2.5,2.5,0,0,1-2.33-3.41l49.57-126.71-9.64-130.72a2.5,2.5,0,0,1,5-.37l9.68,131.29a2.5,2.5,0,0,1-.17,1.09l-49.78,127.24A2.5,2.5,0,0,1,269,1073.78Z"/><path class="cls-1" d="M237.43,742.45s-2.17,9.54-3.9,33.38a70.42,70.42,0,0,0,21.68,20.81s10-4.34,26.45-14.31l4.77-35.12S253.91,740.72,237.43,742.45Z"/><path class="cls-1" d="M343.82,949.87c-0.42,3.21-4.73,14.67-10.85,29.83-7.22-5.65-12-15.11-12-25.83,0-15.22,9.55-27.91,22.19-30.72C343.88,937.76,344.13,947.55,343.82,949.87Z"/><polygon class="cls-1" points="223.42 1046.82 298.56 1076.49 281.22 1113.49 214.56 1086.9 223.42 1046.82"/><path class="cls-2" d="M281.22,1116a2.49,2.49,0,0,1-.93-0.18l-66.67-26.59a2.5,2.5,0,0,1-1.51-2.86l8.86-40.08a2.5,2.5,0,0,1,3.36-1.79l75.15,29.67a2.5,2.5,0,0,1,1.35,3.39l-17.34,37A2.5,2.5,0,0,1,281.22,1116Zm-63.77-30.63L280,1110.29l15.21-32.45-69.95-27.62Z"/><polygon class="cls-1" points="403 1072.15 394.94 1149.03 421.24 1150.98 439.06 1080.2 403 1072.15"/><path class="cls-2" d="M421.24,1153.48h-0.19l-26.31-2a2.5,2.5,0,0,1-2.3-2.75l8.07-76.88a2.5,2.5,0,0,1,3-2.18l36.05,8a2.5,2.5,0,0,1,1.88,3.05l-17.82,70.78A2.5,2.5,0,0,1,421.24,1153.48Zm-23.55-6.75,21.64,1.61L436,1082.08l-30.81-6.87Z"/><path class="cls-3" d="M502.39,1216.38v10.79H369.82s0-5.09.43-13.11c1-19.17,4.56-55.13,16.53-78.23h48.94s13,38.3,54.75,60.68a22.6,22.6,0,0,1,11.8,17.55A23,23,0,0,1,502.39,1216.38Z"/><path class="cls-1" d="M502.39,1216.38v10.79H369.82s0-5.09.43-13.11h132A23,23,0,0,1,502.39,1216.38Z"/><path class="cls-2" d="M502.39,1229.68H369.82a2.5,2.5,0,0,1-2.5-2.5c0-.21,0-5.25.44-13.24a2.5,2.5,0,0,1,2.5-2.37h132a2.5,2.5,0,0,1,2.49,2.25,25.56,25.56,0,0,1,.13,2.56v10.79A2.5,2.5,0,0,1,502.39,1229.68Zm-130-5H499.89v-8.11H372.63C372.46,1220,372.39,1222.83,372.35,1224.68Z"/><path class="cls-3" d="M479.58,942.1c0.09,3.24-2.38,15.23-6,31.16-10.29,44.74-30.14,120.56-30.14,120.56l-65.53-12.71L395,934S324.4,817.31,315.4,786.57s-1.11-84.44-1.11-84.44c14-78.11,88.45-62.94,102.87-24C428.84,709.68,462.3,855,474.8,915.81,477.74,930.13,479.52,939.75,479.58,942.1Z"/><path class="cls-2" d="M333.33,828.34a2.5,2.5,0,0,1-2.22-1.34c-9.79-18.75-15.88-32.12-18.11-39.73-9-30.91-1.51-83.29-1.18-85.5a2.5,2.5,0,0,1,4.95.73c-0.08.53-7.7,53.52,1,83.37,2.14,7.3,8.1,20.36,17.74,38.82A2.5,2.5,0,0,1,333.33,828.34Z"/><path class="cls-2" d="M432.29,939.52h-0.2l-30.58-2.44a2.5,2.5,0,0,1,.4-5l30.58,2.44A2.5,2.5,0,0,1,432.29,939.52Z"/><path class="cls-2" d="M424.67,1076.21a2.55,2.55,0,0,1-.54-0.06,2.5,2.5,0,0,1-1.91-3l29.14-132.9-52.09-213.5a2.5,2.5,0,0,1,4.86-1.19l52.22,214.06a2.5,2.5,0,0,1,0,1.13l-29.27,133.46A2.5,2.5,0,0,1,424.67,1076.21Z"/><path class="cls-2" d="M412.25,771.9a2.5,2.5,0,0,1-1.64-4.38l4.94-4.3A8,8,0,0,0,418,755l-6.67-22.93a2.5,2.5,0,0,1,4.8-1.4l6.67,22.93A13,13,0,0,1,418.83,767l-4.94,4.3A2.49,2.49,0,0,1,412.25,771.9Z"/><path class="cls-1" d="M340.17,752.25s1.24,11.38,3.26,35.2a70.42,70.42,0,0,0,24.67,17.17s9.17-5.84,23.88-18.27l-0.69-31.18S361.79,749,340.17,752.25Z"/><path class="cls-1" d="M479.58,942.1c0.09,3.24-2.38,15.23-6,31.16-8-4.45-14.17-13.05-15.85-23.64-2.38-15,5.07-29.06,17.12-33.81C477.74,930.13,479.52,939.75,479.58,942.1Z"/><polygon class="cls-1" points="375.82 1056.68 454.68 1074.24 443.33 1113.49 373.33 1097.65 375.82 1056.68"/><path class="cls-2" d="M443.34,1116a2.5,2.5,0,0,1-.55-0.06l-70-15.84a2.5,2.5,0,0,1-1.94-2.59l2.49-41a2.5,2.5,0,0,1,3-2.29l78.86,17.56a2.5,2.5,0,0,1,1.86,3.13l-11.34,39.25A2.5,2.5,0,0,1,443.34,1116ZM376,1095.68l65.63,14.85,10-34.43-73.4-16.34Z"/><path class="cls-1" d="M312.08,509.43L266.7,522.16l15.48-40.77-33.37-3s-47.93,53.39-44.9,83.13,53.3,30,110.94,22.12S312.08,509.43,312.08,509.43Z"/><path class="cls-2" d="M260.58,590.49c-23.81,0-39.91-3.71-49.43-11.19a24.84,24.84,0,0,1-9.73-17.56c-3.11-30.48,43.54-82.83,45.53-85a2.5,2.5,0,0,1,2.09-.82l33.37,3a2.5,2.5,0,0,1,2.11,3.38L270.8,518.42,311.41,507a2.5,2.5,0,0,1,2.52.72c1.45,1.59,35.36,39.17,27,62.23-3.18,8.78-11.84,14.2-25.74,16.1C293.73,589,275.62,590.49,260.58,590.49ZM249.85,481c-6.28,7.2-46.12,54.07-43.45,80.27a19.75,19.75,0,0,0,7.85,14.14c14.19,11.16,47,13,100.27,5.75,11.91-1.63,19.22-6,21.72-12.85,6.6-18.21-19.45-49.63-25-56l-43.87,12.31a2.5,2.5,0,0,1-3-3.29l14.31-37.69Z"/><path class="cls-2" d="M732.91,796.58l18.56,26.65-30.66-11C723.56,810.5,730.68,805.25,732.91,796.58Z"/><path class="cls-1" d="M627.45,777.18l25.77-29,0.13-.17,21.29-32.44,56.63,81.32c-2.1,7.18-7.74,11.76-10.66,13.72Z"/><path class="cls-2" d="M720.61,813.08a2.52,2.52,0,0,1-.84-0.15l-93.16-33.4a2.5,2.5,0,0,1-1-4l25.72-29,21.25-32.38a2.5,2.5,0,0,1,2.06-1.13,2.47,2.47,0,0,1,2.09,1.07l56.63,81.32a2.5,2.5,0,0,1,.35,2.13c-2.3,7.86-8.3,12.83-11.67,15.09A2.5,2.5,0,0,1,720.61,813.08Zm-88.83-37,88.46,31.71a23.6,23.6,0,0,0,8.28-10.52L674.71,720l-19.26,29.35a4,4,0,0,1-.35.46Zm19.49-29.46h0Z"/><path class="cls-2" d="M674.68,718.21l54.94,78.89c-2,5.94-6.67,10-9.24,11.79L630,776.52l24.3-27.37a3,3,0,0,0,.26-0.35l20.07-30.59m-0.07-5.36-22.51,34.3-27.24,30.69,95.95,34.4c2.75-1.74,9.87-7,12.1-15.66l-58.3-83.72h0Z"/><path class="cls-3" d="M281,410.82L672.16,710.31c6.77,5.19,6.9,17.16,1.38,30.19a76.29,76.29,0,0,1-22.29,29.11c-11.14,8.73-22.73,11.73-29.5,6.54L230.57,476.66c3.31,2.53,11.57-3.79,20.53-13.41a202.46,202.46,0,0,0,22.29-29.11C280.34,423,284.29,413.35,281,410.82Z"/><path class="cls-2" d="M647.36,769.12a2.49,2.49,0,0,1-1.52-.51L258.55,472.1a2.5,2.5,0,1,1,3-4l387.29,296.5A2.5,2.5,0,0,1,647.36,769.12Z"/><path class="cls-2" d="M670.54,740.69a2.49,2.49,0,0,1-1.52-.51L280.5,442.73a2.5,2.5,0,1,1,3-4L672.06,736.21A2.5,2.5,0,0,1,670.54,740.69Z"/><path class="cls-4" d="M246.55,384.46L281,410.82c9.51,7.28,5.93,27.92-8,46.1s-32.91,27-42.42,19.74L196.14,450.3c9.51,7.28,28.5-1.56,42.42-19.74S256.06,391.74,246.55,384.46Z"/><path class="cls-1" d="M212.13,358.11l34.42,26.35c9.51,7.28,5.93,27.92-8,46.1s-32.9,27-42.42,19.74l-34.42-26.35c9.51,7.28,28.5-1.56,42.42-19.74S221.63,365.38,212.13,358.11Z"/><path class="cls-2" d="M204.35,455.36a15.66,15.66,0,0,1-9.73-3.07L160.2,425.93a2.5,2.5,0,0,1,3-4c3.82,2.93,9.85,2.71,17-.6,7.65-3.56,15.44-10.19,21.93-18.67,12.84-16.77,16.71-36.27,8.47-42.59h0a2.5,2.5,0,0,1,3-4h0l34.41,26.35c5.38,4.11,7.41,11.71,5.74,21.38-1.58,9.1-6.29,19.12-13.26,28.23C229.35,446.71,215.25,455.36,204.35,455.36Zm-32.08-26.48,25.39,19.44c8.26,6.32,26.07-2.51,38.91-19.27,6.49-8.48,10.86-17.73,12.31-26,1.34-7.75,0-13.62-3.85-16.55L219.64,367c1.67,10.45-3.11,25.12-13.52,38.72-7,9.11-15.42,16.27-23.79,20.16A32.34,32.34,0,0,1,172.27,428.88Z"/><ellipse class="cls-1" cx="186.92" cy="391.03" rx="41.46" ry="21.68" transform="translate(-237.19 301.74) rotate(-52.56)"/><path class="cls-2" d="M169.9,429a15.61,15.61,0,0,1-9.7-3.07c-5.37-4.11-7.41-11.7-5.73-21.37,1.58-9.1,6.28-19.12,13.26-28.23,15-19.58,35.16-28.46,45.93-20.21h0c10.77,8.24,7.46,30-7.53,49.61-7,9.11-15.42,16.27-23.79,20.16A29.88,29.88,0,0,1,169.9,429Zm34-71c-9.17,0-22.22,8.25-32.23,21.33-6.49,8.48-10.86,17.73-12.3,26-1.34,7.75,0,13.62,3.85,16.55s9.85,2.71,17-.6c7.65-3.56,15.44-10.19,21.93-18.67,12.84-16.77,16.71-36.28,8.46-42.6h0A10.76,10.76,0,0,0,203.92,358Z"/><path class="cls-4" d="M399.22,479.81c-30.21,3.9-117,33.74-117,33.74s-18.81,49.15,23.66,75.84c0,0,72.81-17.6,99.51-30.34S453.76,472.78,399.22,479.81Z"/><polygon class="cls-1" points="437.48 480.56 455.76 453.77 473.88 458.51 462.38 492.22 437.48 480.56"/><path class="cls-2" d="M462.38,494.72a2.5,2.5,0,0,1-1.06-.24l-24.9-11.66a2.5,2.5,0,0,1-1-3.67l18.28-26.79a2.5,2.5,0,0,1,2.7-1l18.12,4.75a2.5,2.5,0,0,1,1.73,3.23L464.75,493A2.5,2.5,0,0,1,462.38,494.72ZM441.2,479.54l19.72,9.23,9.74-28.53-13.82-3.62Z"/><path class="cls-1" d="M463.94,452.9c-0.33,3.82,8.2,34.36,28.69,30.58s30.58-46.65,21.12-57.37S468.36,401.2,463.94,452.9Z"/><path class="cls-2" d="M489.13,486.3a20.85,20.85,0,0,1-14.27-5.89c-9.45-8.57-13.71-24.13-13.4-27.73l2.49,0.21-2.49-.21c2.26-26.49,12.72-35.35,21.1-38.11,12.87-4.25,27.34,3.38,33.07,9.88,6.35,7.19,4.72,23.55.52,35.71-5,14.6-13.45,24-23.06,25.77A21.75,21.75,0,0,1,489.13,486.3Zm-22.69-33.2c-0.11,2.15,3.6,16.42,12.05,23.85,4.11,3.61,8.72,5,13.69,4.06,7.67-1.42,14.86-9.82,19.24-22.49s4.56-26.13.46-30.77c-5-5.71-17.49-11.82-27.75-8.44C474.16,422.61,468,434.29,466.43,453.11Z"/><path class="cls-2" d="M452.28,454.79a35.77,35.77,0,0,0,18.6,8.2l8.2-6.93s-5-19.54,5-22.38,13.87,9.46,11,18.28,25.22,9.14,30.89-4.73-7.25-24.59-7.25-24.59-4.41-19.54-32.47-19.23S448.5,428,452.28,454.79Z"/><path class="cls-1" d="M418.56,479.93s18-11.35,35.62-2.84,16.39,25.53,16.39,25.53Z"/><path class="cls-2" d="M470.58,505.13a2.5,2.5,0,0,1-1-.21l-52-22.7a2.5,2.5,0,0,1-.33-4.41c0.78-.49,19.35-12,38-3,19,9.15,17.85,27.21,17.8,28A2.5,2.5,0,0,1,470.58,505.13Zm-46.12-25.35,43.41,18.94c-0.72-5-3.62-14-14.77-19.37S430.58,477.19,424.46,479.77Z"/><path class="cls-4" d="M223.25,706.29s103.46-4.07,217.51,48.88c0,0,4.07-78.21,5.7-105.91,0,0,40.73-21.18,44.81-27.7s-5.7-99.39-9.78-115.68-51.32-32.59-82.28-26.07S286.8,539.28,223.25,706.29Z"/><path class="cls-2" d="M295,570.5a2.5,2.5,0,0,1-2-4c41.76-58.19,83.05-84.41,105.72-89.18a2.5,2.5,0,1,1,1,4.89C377.94,486.85,338,512.44,297,569.46A2.5,2.5,0,0,1,295,570.5Z"/><path class="cls-2" d="M434,744.4a2.49,2.49,0,0,1-1.25-.34c-78.59-45.63-196.1-46.89-197.28-46.89a2.5,2.5,0,0,1,0-5h0c1.19,0,120,1.28,199.75,47.57A2.5,2.5,0,0,1,434,744.4Z"/><path class="cls-2" d="M451.48,408S443,375.26,414,379.36s-35.62,39.09-34,62.41-20.49,27.11-34.36,27.74-19.86,50.75,31.21,46.65,49.8-49.49,51.38-72.5,10.72-28.69,22.07-25.22S451.48,408,451.48,408Z"/><path class="cls-1" d="M451.26,409.36l-5.67,7.94a2.83,2.83,0,0,0,.6,3.91l6.19,4.66a2.83,2.83,0,0,0,4.07-.71l5.55-8.47a2.83,2.83,0,0,0-.77-3.89l-6.07-4.13A2.83,2.83,0,0,0,451.26,409.36Z"/><path class="cls-2" d="M454.09,428.94a5.35,5.35,0,0,1-3.21-1.07l-6.19-4.66a5.3,5.3,0,0,1-1.13-7.36l5.67-7.94a5.36,5.36,0,0,1,7.34-1.31l6.07,4.13a5.36,5.36,0,0,1,1.46,7.33l-5.55,8.47a5.35,5.35,0,0,1-3.54,2.33A5.27,5.27,0,0,1,454.09,428.94Zm-0.53-18.27a0.33,0.33,0,0,0-.27.14h0l-5.67,7.94a0.33,0.33,0,0,0,.07.46l6.19,4.66a0.33,0.33,0,0,0,.48-0.08l5.55-8.47a0.33,0.33,0,0,0-.09-0.46l-6.07-4.13A0.33,0.33,0,0,0,453.57,410.67Zm-2.3-1.31h0Z"/><path class="cls-1" d="M650.5,740.26a4.13,4.13,0,0,1-4.77.6L639,737.18c1.61,5.44,2.7,9.75,3,11.28,0.79,4.74,2.08,35.89-2.63,38S625.92,761,625.92,761s2.1,17.83,0,19.41-31-10-34.63-14.69-8.91-26.76-8.91-30.42,0.87-26.46.87-26.46S516.64,674.78,510.34,669s-48.26-71.34-64-105.44-7.43-84.67,28-68.57c32.1,14.58,82.13,135,82.13,135s61.59,64.75,68.7,73.44c1.45,1.77,25.56,31,25.56,31A4.13,4.13,0,0,1,650.5,740.26Z"/><path class="cls-2" d="M638.78,789.06a4.21,4.21,0,0,1-1.73-.38c-2.62-1.18-5.38-6-7.78-11.38-0.33,4-1.3,4.74-1.85,5.15-0.9.68-2.79,2.09-19.17-4.67-4.77-2-16.17-6.94-18.93-10.48-4-5.2-9.44-27.83-9.44-32,0-3.15.62-19.68,0.82-25-11.34-5.82-66-34-72-39.52-6.84-6.27-49.15-72.8-64.58-106.23-11.34-24.56-10.18-56.11,2.53-68.89,5-5.05,14.1-9.67,28.79-3,32,14.52,79.4,126.78,83.22,135.92,5.31,5.58,61.61,64.81,68.5,73.24,1.41,1.72,24.5,29.71,25.52,30.95a6.65,6.65,0,0,1-.43,9.25l0,0a6.76,6.76,0,0,1-7.64,1l-1.54-.84c0.7,2.61,1.21,4.73,1.4,5.83a161.12,161.12,0,0,1,.78,20.44c-0.31,16-2.52,19.2-4.86,20.24A3.8,3.8,0,0,1,638.78,789.06Zm-0.71-4.75h0Zm-12.14-25.78a2.5,2.5,0,0,1,2.38,1.75c3.42,10.86,7.84,20.91,10.19,23.35,2.31-5,2-28.46,1-34.77-0.23-1.37-1.29-5.59-2.89-11a2.5,2.5,0,0,1,3.59-2.9l6.74,3.67a1.69,1.69,0,0,0,1.88-.24,1.63,1.63,0,0,0,.09-2.27l-0.08-.09c-0.24-.29-24.13-29.25-25.57-31-7-8.52-68-72.65-68.57-73.3a2.5,2.5,0,0,1-.5-0.76c-0.5-1.2-50-119.7-80.85-133.71-9.7-4.41-17.5-3.74-23.17,2-11.18,11.25-11.9,40.82-1.54,63.27,15.93,34.53,58,99.65,63.41,104.64,4.44,4.06,45.71,25.84,72.37,39.48a2.5,2.5,0,0,1,1.36,2.32c0,0.23-.87,22.78-0.87,26.36,0,3.23,5.17,24.75,8.39,28.88,2.61,3.36,24.88,12.73,30.94,13.78,0.39-2.86,0-10.37-.77-16.67A2.5,2.5,0,0,1,625.92,758.53ZM624,778.92h0Zm1.25-.83h0Zm25.26-37.83h0Z"/><path class="cls-4" d="M479.84,634.88s21.44,11.66,43.25-2.26,19.18-38.74,19.18-38.74-35-82.74-60.93-97.41-46.18-2.38-47.31,28.46C432.55,565.59,479.84,634.88,479.84,634.88Z"/><path class="cls-2" d="M494.62,627.76a48.69,48.69,0,0,1-14.24-2.06A2.5,2.5,0,0,1,482,621c0.28,0.09,18.7,6,33.28-4.34C530.66,605.7,529,587.91,529,587.74a2.5,2.5,0,0,1,5-.52c0.09,0.85,2,20.9-15.8,33.48A40.24,40.24,0,0,1,494.62,627.76Z"/><path class="cls-2" d="M473.78,628a2.5,2.5,0,0,1-2.12-1.17c-12.46-19.89-41.31-69.66-40.12-102,0.45-12.39,3.93-22.37,10-28.87a2.5,2.5,0,1,1,3.64,3.43c-5.28,5.61-8.28,14.47-8.69,25.63-1.13,31,27.15,79.66,39.36,99.16A2.5,2.5,0,0,1,473.78,628Z"/><path class="cls-2" d="M287.18,223.09a2.5,2.5,0,0,1-2.5-2.5V209.31a2.5,2.5,0,0,1,5,0v11.28A2.5,2.5,0,0,1,287.18,223.09Z"/><path class="cls-2" d="M304.2,228.83H292.91a2.5,2.5,0,0,1,0-5H304.2A2.5,2.5,0,0,1,304.2,228.83Z"/><path class="cls-2" d="M287.18,245.85a2.5,2.5,0,0,1-2.5-2.5V232.06a2.5,2.5,0,0,1,5,0v11.28A2.5,2.5,0,0,1,287.18,245.85Z"/><path class="cls-2" d="M281.44,228.83H270.16a2.5,2.5,0,0,1,0-5h11.28A2.5,2.5,0,0,1,281.44,228.83Z"/><path class="cls-2" d="M1343,1056.52a2.5,2.5,0,0,1-2.5-2.5v-11.28a2.5,2.5,0,0,1,5,0V1054A2.5,2.5,0,0,1,1343,1056.52Z"/><path class="cls-2" d="M1360,1062.26H1348.7a2.5,2.5,0,1,1,0-5H1360A2.5,2.5,0,0,1,1360,1062.26Z"/><path class="cls-2" d="M1343,1079.28a2.5,2.5,0,0,1-2.5-2.5v-11.28a2.5,2.5,0,0,1,5,0v11.28A2.5,2.5,0,0,1,1343,1079.28Z"/><path class="cls-2" d="M1337.23,1062.26h-11.28a2.5,2.5,0,1,1,0-5h11.28A2.5,2.5,0,0,1,1337.23,1062.26Z"/><circle class="cls-3" cx="309.21" cy="357.26" r="5.02"/><circle class="cls-4" cx="1288.35" cy="987.54" r="8.86"/></svg>